<?xml version="1.0" encoding="utf-8"?>
<svg viewBox="23.073 3.8838 103.6286 42.4046" xmlns="http://www.w3.org/2000/svg">
  <path
    d="M 90.046 165.25 L 94.434 165.25 L 94.434 161.99 Q 94.434 161.342 94.884 160.883 Q 95.322 160.423 95.981 160.423 L 96.002 160.423 Q 96.65 160.423 97.099 160.883 Q 97.559 161.342 97.559 161.99 L 97.559 172.115 Q 97.559 172.763 97.099 173.223 Q 96.639 173.672 96.002 173.672 L 95.981 173.672 Q 95.322 173.672 94.873 173.223 Q 94.434 172.763 94.434 172.115 L 94.434 167.821 L 90.046 167.821 L 90.046 172.115 Q 90.046 172.763 89.591 173.218 Q 89.137 173.672 88.478 173.672 L 88.447 173.672 Q 87.799 173.672 87.35 173.223 Q 86.9 172.763 86.9 172.115 L 86.9 161.99 Q 86.9 161.342 87.35 160.883 Q 87.799 160.423 88.447 160.423 L 88.478 160.423 Q 89.126 160.423 89.586 160.883 Q 90.046 161.342 90.046 161.99 Z M 103.35 170.893 Q 103.35 170.893 103.852 171.52 Q 104.353 172.147 105.67 172.147 Q 106.986 172.147 108.042 170.914 Q 109.097 169.681 109.097 166.285 Q 109.097 164.561 108.042 163.328 Q 106.986 162.095 105.67 162.095 Q 104.353 162.095 103.36 163.338 Q 102.357 164.582 102.357 166.285 Q 102.347 169.639 103.35 170.893 Z M 106.171 160.381 Q 108.825 160.715 110.591 162.481 Q 112.357 164.247 112.357 167.089 Q 112.357 169.932 110.685 171.729 Q 109.024 173.516 106.171 173.683 Q 105.973 173.693 105.91 173.714 Q 105.847 173.735 105.816 173.725 L 105.638 173.725 Q 105.597 173.725 105.544 173.725 Q 105.482 173.735 105.283 173.683 Q 102.347 173.401 100.727 171.687 Q 99.108 169.973 99.108 167.089 Q 99.108 164.216 100.926 162.419 Q 102.744 160.621 105.283 160.381 Q 105.586 160.35 105.732 160.339 Q 105.889 160.35 106.171 160.381 Z M 122.244 169.806 Q 122.244 171.489 121.063 172.596 Q 119.653 173.892 116.946 173.892 Q 115.912 173.892 114.376 173.432 Q 113.895 173.317 113.634 172.857 Q 113.362 172.398 113.477 171.906 L 113.498 171.865 Q 113.634 171.332 114.104 171.071 Q 114.585 170.799 115.118 170.976 Q 116.372 171.374 117.218 171.374 Q 118.054 171.374 118.587 171.008 Q 119.12 170.642 119.12 170.057 Q 119.12 169.461 118.65 169.085 Q 118.169 168.709 116.988 168.281 Q 113.362 166.985 113.362 164.352 Q 113.362 162.554 114.731 161.499 Q 116.1 160.391 118.336 160.412 Q 119.141 160.412 120.499 160.747 Q 120.99 160.862 121.262 161.332 Q 121.534 161.802 121.408 162.293 L 121.387 162.314 Q 121.231 162.795 120.813 163.046 Q 120.384 163.307 119.883 163.171 Q 117.803 162.586 116.946 163.265 Q 116.487 163.631 116.487 164.164 Q 116.487 164.697 117.009 165.031 Q 117.521 165.365 119.068 165.95 Q 122.244 167.142 122.244 169.806 Z M 123.814 162.053 Q 123.814 162.053 123.814 162.011 Q 123.667 161.363 123.991 160.945 Q 124.315 160.527 124.838 160.527 L 132.852 160.527 Q 133.385 160.527 133.72 160.966 Q 134.054 161.405 133.876 162.011 L 133.876 162.053 Q 133.793 162.398 133.479 162.638 Q 133.155 162.878 132.852 162.847 L 130.449 162.659 L 130.449 172.147 Q 130.449 172.826 129.989 173.296 Q 129.529 173.756 128.84 173.756 L 128.829 173.756 Q 128.161 173.756 127.701 173.296 Q 127.241 172.836 127.241 172.147 L 127.241 162.659 L 124.838 162.847 Q 124.482 162.878 124.179 162.607 Q 123.876 162.345 123.814 162.053 Z M 138.509 167.863 L 138.509 172.136 Q 138.509 172.784 138.06 173.244 Q 137.611 173.704 136.953 173.704 L 136.932 173.704 Q 136.294 173.704 135.845 173.244 Q 135.385 172.784 135.385 172.136 L 135.385 162.429 Q 135.385 161.635 135.96 161.06 Q 136.535 160.485 137.329 160.485 L 142.553 160.485 Q 143.128 160.485 143.473 160.924 Q 143.703 161.206 143.703 161.656 L 143.703 162.105 Q 143.703 162.429 143.316 162.732 Q 142.929 163.035 142.553 163.014 L 138.509 162.826 L 138.509 165.856 L 142.595 165.668 Q 143.055 165.647 143.41 166.013 Q 143.765 166.379 143.776 166.849 L 143.776 166.87 Q 143.776 167.361 143.4 167.716 Q 143.024 168.072 142.595 168.051 Z M 153.419 168.396 Q 153.419 168.396 153.356 161.969 Q 153.346 161.342 153.795 160.883 Q 154.255 160.433 154.903 160.423 L 154.944 160.423 Q 155.77 160.423 156.219 160.872 Q 156.669 161.321 156.658 161.969 L 156.658 168.051 Q 156.658 170.35 155.049 171.99 Q 153.44 173.631 151.131 173.62 L 151.016 173.62 Q 148.644 173.62 146.972 171.948 Q 145.31 170.287 145.31 167.904 L 145.31 161.969 Q 145.31 161.321 145.76 160.883 Q 146.209 160.433 147.045 160.423 L 147.087 160.423 Q 147.724 160.423 148.173 160.883 Q 148.623 161.342 148.612 161.969 L 148.55 168.343 Q 148.539 169.399 149.312 170.141 Q 150.086 170.893 150.974 170.893 L 151.047 170.893 Q 151.925 170.893 152.677 170.151 Q 153.429 169.399 153.419 168.396 Z M 159.595 160.465 Q 160.4 160.465 160.88 160.914 Q 161.361 161.363 161.35 162.022 L 161.173 171.091 L 165.666 170.893 Q 166.157 170.862 166.523 171.248 Q 166.888 171.624 166.878 172.115 L 166.878 172.136 Q 166.878 172.826 166.533 173.192 Q 166.178 173.547 165.666 173.547 L 159.658 173.547 Q 159.052 173.547 158.623 173.129 Q 158.205 172.711 158.205 172.095 L 158.205 162.022 Q 158.205 161.395 158.654 160.935 Q 159.104 160.465 159.564 160.465 Z M 169.755 160.465 Q 170.559 160.465 171.04 160.914 Q 171.52 161.363 171.51 162.022 L 171.332 171.091 L 175.826 170.893 Q 176.317 170.862 176.682 171.248 Q 177.048 171.624 177.038 172.115 L 177.038 172.136 Q 177.038 172.826 176.693 173.192 Q 176.338 173.547 175.826 173.547 L 169.817 173.547 Q 169.211 173.547 168.783 173.129 Q 168.365 172.711 168.365 172.095 L 168.365 162.022 Q 168.365 161.395 168.814 160.935 Q 169.263 160.465 169.723 160.465 Z M 181.732 168.343 L 178.535 162.554 Q 178.138 161.844 178.597 161.123 Q 179.057 160.402 179.872 160.391 L 180.039 160.391 Q 181.053 160.391 181.429 161.353 Q 182.391 163.767 183.415 166.024 L 185.421 161.353 Q 185.839 160.402 186.811 160.391 L 186.831 160.391 Q 187.678 160.391 188.127 161.123 Q 188.577 161.865 188.169 162.565 L 184.867 168.228 L 184.867 172.063 Q 184.867 172.847 184.407 173.296 Q 183.947 173.756 183.321 173.756 L 183.279 173.756 Q 182.641 173.756 182.192 173.296 Q 181.732 172.836 181.732 172.063 Z"
    transform="matrix(1, 0, 0, 1, -62.265648, -154.659836)" style="fill: rgb(255, 215, 0);" />
  <path transform="matrix(1, 0, 0, 1, -62.265648, -154.659836)" style="fill: rgb(255, 215, 0);" />
  <path
    d="M 99.665 183.453 Q 99.665 183.453 99.665 183.411 Q 99.519 182.763 99.843 182.345 Q 100.167 181.927 100.689 181.927 L 108.704 181.927 Q 109.237 181.927 109.571 182.366 Q 109.905 182.805 109.728 183.411 L 109.728 183.453 Q 109.644 183.798 109.331 184.038 Q 109.007 184.278 108.704 184.247 L 106.3 184.059 L 106.3 193.547 Q 106.3 194.226 105.841 194.696 Q 105.381 195.156 104.691 195.156 L 104.681 195.156 Q 104.012 195.156 103.552 194.696 Q 103.092 194.236 103.092 193.547 L 103.092 184.059 L 100.689 184.247 Q 100.334 184.278 100.031 184.007 Q 99.728 183.745 99.665 183.453 Z M 115.505 187.256 Q 114.763 187.256 114.042 187.894 Q 113.582 188.301 113.405 189.221 L 117.982 189.221 Q 117.637 188.009 116.958 187.633 Q 116.278 187.256 115.505 187.256 Z M 120.134 190.203 L 120.134 190.213 Q 120.134 191.091 119.298 191.091 L 113.478 191.091 Q 113.781 192.042 114.094 192.345 Q 115.254 193.411 117.187 192.544 L 118.264 192.063 Q 118.964 191.75 119.34 192.282 Q 119.716 192.815 119.591 193.38 L 119.57 193.39 Q 119.465 193.86 118.609 194.33 Q 117.365 195.02 115.181 194.999 Q 113.614 194.999 112.151 193.599 Q 110.698 192.199 110.698 190.198 Q 110.698 188.197 112.099 186.776 Q 113.509 185.365 115.422 185.396 Q 117.334 185.428 118.734 186.765 Q 120.134 188.103 120.134 190.203 Z M 121.13 193.463 Q 121.224 193.066 121.642 192.815 Q 122.018 192.585 122.655 192.794 Q 123.293 193.003 123.951 192.983 Q 125.205 192.962 125.205 192.199 Q 125.205 191.854 124.933 191.635 Q 124.662 191.415 123.836 191.123 Q 121.119 190.182 121.14 188.28 Q 121.161 186.912 122.206 186.055 Q 123.241 185.198 124.975 185.198 Q 125.79 185.187 126.657 185.428 Q 127.044 185.532 127.274 185.888 Q 127.493 186.243 127.378 186.65 L 127.378 186.661 Q 127.305 187.058 126.919 187.298 Q 126.532 187.528 126.041 187.392 Q 125.539 187.256 125.069 187.235 Q 123.951 187.215 123.951 187.977 Q 123.951 188.291 124.275 188.542 Q 124.599 188.782 125.477 189.085 Q 127.995 189.973 128.005 191.969 Q 128.026 193.338 126.992 194.195 Q 125.957 195.041 123.951 195.041 Q 122.896 195.041 121.851 194.759 Q 121.485 194.665 121.245 194.257 Q 121.015 193.881 121.13 193.495 Z M 132.93 190.485 Q 132.93 192.084 133.808 192.544 Q 134.487 192.92 134.132 193.954 Q 133.777 195.02 133.004 195.02 Q 131.75 195.02 130.987 193.536 Q 130.339 192.262 130.339 190.297 L 130.339 187.737 L 129.963 187.737 Q 129.534 187.737 129.252 187.465 Q 128.96 187.204 128.97 186.765 L 128.97 186.744 Q 128.97 186.337 129.252 186.044 Q 129.534 185.752 129.963 185.752 L 130.339 185.752 L 130.339 184.686 Q 130.339 183.954 130.914 183.526 Q 131.227 183.275 131.802 183.275 L 131.844 183.275 Q 132.199 183.275 132.565 183.735 Q 132.93 184.195 132.93 184.686 L 132.93 185.752 L 133.808 185.752 Q 134.195 185.752 134.487 186.055 Q 134.78 186.358 134.78 186.744 L 134.78 186.765 Q 134.78 187.215 134.498 187.476 Q 134.216 187.737 133.808 187.737 L 132.93 187.737 Z M 145.53 189.398 L 148.926 189.398 L 147.233 184.707 Z M 149.636 183.693 Q 149.636 183.693 152.969 192.93 Q 153.241 193.683 152.771 194.33 Q 152.301 194.989 151.517 194.989 L 151.287 194.989 Q 150.786 194.989 150.357 194.675 Q 149.929 194.372 149.845 193.913 L 149.302 191.321 L 145.341 191.321 L 144.84 193.881 Q 144.746 194.383 144.307 194.686 Q 143.858 194.989 143.262 194.989 L 143.032 194.989 Q 142.249 194.989 141.789 194.33 Q 141.329 193.683 141.58 192.93 L 144.746 183.735 Q 145.018 182.941 145.686 182.471 Q 146.355 182 147.045 182 L 147.337 182 Q 148.016 182 148.685 182.471 Q 149.364 182.941 149.636 183.693 Z M 161.662 190.903 Q 161.662 190.903 161.662 189.649 Q 161.662 188.583 161.093 187.815 Q 160.523 187.047 159.698 187.047 Q 159.217 186.974 158.726 187.152 Q 157.733 187.476 157.733 188.657 Q 157.733 188.657 157.733 192.199 Q 157.922 192.805 158.82 193.139 Q 159.719 193.463 160.67 193.003 Q 161.129 192.815 161.401 192.22 Q 161.662 191.624 161.662 190.903 Z M 159.949 194.989 Q 158.758 194.989 157.733 194.372 L 157.733 197.632 Q 157.733 198.238 157.284 198.698 Q 156.856 199.127 156.25 199.116 L 156.208 199.116 Q 155.55 199.116 155.142 198.698 Q 154.724 198.28 154.724 197.632 L 154.724 185.95 Q 154.724 185.71 154.891 185.522 Q 155.058 185.334 155.33 185.334 L 157.127 185.334 Q 157.389 185.334 157.566 185.532 Q 157.744 185.731 157.733 185.95 Q 158.758 185.334 159.949 185.334 Q 161.861 185.334 163.188 186.744 Q 164.515 188.155 164.525 190.161 Q 164.525 192.167 163.188 193.578 Q 161.861 194.989 159.949 194.989 Z M 172.76 190.903 Q 172.76 190.903 172.76 189.649 Q 172.76 188.583 172.19 187.815 Q 171.621 187.047 170.795 187.047 Q 170.315 186.974 169.824 187.152 Q 168.831 187.476 168.831 188.657 Q 168.831 188.657 168.831 192.199 Q 169.019 192.805 169.918 193.139 Q 170.816 193.463 171.767 193.003 Q 172.227 192.815 172.499 192.22 Q 172.76 191.624 172.76 190.903 Z M 171.046 194.989 Q 169.855 194.989 168.831 194.372 L 168.831 197.632 Q 168.831 198.238 168.382 198.698 Q 167.953 199.127 167.347 199.116 L 167.305 199.116 Q 166.647 199.116 166.24 198.698 Q 165.822 198.28 165.822 197.632 L 165.822 185.95 Q 165.822 185.71 165.989 185.522 Q 166.156 185.334 166.428 185.334 L 168.225 185.334 Q 168.486 185.334 168.664 185.532 Q 168.841 185.731 168.831 185.95 Q 169.855 185.334 171.046 185.334 Q 172.958 185.334 174.285 186.744 Q 175.612 188.155 175.623 190.161 Q 175.623 192.167 174.285 193.578 Q 172.958 194.989 171.046 194.989 Z"
    transform="matrix(1, 0, 0, 1, -62.265648, -154.659836)" style="fill: rgb(255, 215, 0);" />
</svg>